<svg xmlns="http://www.w3.org/2000/svg" width="24" height="24" viewBox="0 0 24 24" fill="none">
  <path d="M20.984 6.82104C20.9357 6.34931 20.7803 5.92314 20.48 5.55057C20.2146 5.2209 19.8742 4.98503 19.5525 4.71968C19.3916 4.58834 18.9654 4.23186 18.9118 4.03084C18.8475 3.78693 18.9466 3.53766 19.1691 3.45725C19.5042 3.34468 20.0645 3.34736 20.3889 3.3688C20.665 3.39024 20.9491 3.29375 20.9599 3.18118C20.9706 3.06861 20.8071 2.90243 20.5899 2.8515C20.4184 2.8113 20.1556 2.74965 19.9975 2.64512C19.716 2.45482 19.4292 2.10638 19.0378 2.02865C18.4802 1.91876 18.0915 2.12782 17.9092 2.60759C17.6197 3.29375 17.8073 4.17289 18.4159 4.81617C18.6893 5.10564 19.0083 5.35491 19.3139 5.6149C19.5391 5.80788 19.7375 6.01963 19.9278 6.25549C20.4371 6.89073 19.8983 8.05666 19.7696 8.19068C19.3193 8.65705 18.9279 8.74282 18.1505 8.71066C17.3865 8.67849 15.4054 7.65462 14.3572 7.62245C11.7623 7.54204 9.96084 8.74014 9.35232 9.05106C8.44087 9.51743 7.1434 9.54691 7.10319 9.56031C6.51611 9.60588 5.29906 9.65144 4.6959 9.86051C3.84611 10.0964 3.3877 10.485 3.07674 11.3534C2.98023 11.7287 2.96147 12.0691 3.09818 12.2755C3.39575 12.7258 4.19728 13.101 4.56186 13.3074C4.74951 13.4146 5.11945 13.2806 5.19183 13.2297C5.5993 12.9536 5.95852 12.7365 6.44105 12.6668C6.54292 12.6507 7.22382 12.5301 7.56696 12.782C7.81626 12.9643 8.03072 13.0742 8.3122 13.2029C8.8269 13.436 9.96085 13.7309 9.98229 13.7362C10.1351 13.7764 10.3308 13.8542 10.3308 13.9909C10.3308 14.1838 8.52934 15.6902 8.43015 15.7277C7.97711 15.9126 7.7144 16.2102 7.63129 16.639C7.60449 16.7784 7.54283 16.9231 7.46509 17.0384C7.17289 17.4619 5.8781 19.3006 5.53496 19.8045C5.37144 20.0403 5.20255 20.1583 4.96933 20.1958C4.63424 20.2494 4.38225 20.2574 4.24017 20.496C4.15171 20.6487 4.20801 20.9463 4.26698 21.1392C4.334 21.359 4.15171 21.6324 4.13831 21.6646C3.97746 21.9782 3.91044 22.2784 3.93457 22.5813C3.94261 22.7045 3.95066 22.9913 4.15439 22.9994C4.35813 23.0101 4.41174 22.8788 4.43587 22.8305C4.46536 22.7716 4.57795 22.5276 4.61011 22.4687C4.74147 22.2248 5.24277 21.6994 5.29906 21.6378C5.47867 21.4394 8.1594 17.7487 8.1594 17.7487C8.30684 17.5557 8.45964 17.3573 8.70895 17.2608C9.05476 17.1268 9.2853 16.8508 9.35232 16.4862C9.3684 16.4058 10.438 15.5856 10.8937 15.2399C11.0599 15.1139 12.0679 14.7092 12.084 14.7145C12.084 14.7226 11.1618 16.111 10.875 16.8481C10.8294 16.966 10.7543 17.3681 10.8374 17.5718C10.9661 17.8854 11.2422 18.022 11.5559 17.9282C11.6524 17.8988 11.7382 17.8505 11.8213 17.8049C11.8588 17.7835 11.8963 17.7647 11.9339 17.746C11.9714 17.7272 12.0062 17.7085 12.0438 17.6897C12.1296 17.6441 12.2127 17.6012 12.2958 17.5744C12.604 17.4726 12.915 17.3761 13.226 17.2796L13.8559 17.0839C14.2956 16.9472 14.7352 16.8105 15.1749 16.6765C15.2714 16.647 15.3652 16.6122 15.4858 16.6149C15.5528 16.6149 15.6252 16.6417 15.6493 16.7409C15.6493 16.7462 15.7003 17.0464 15.8853 17.167C15.9791 17.2287 16.1801 17.2769 16.3303 17.2716C16.4616 17.2662 16.6278 17.3037 16.7136 17.3788L16.8235 17.4726C16.9039 17.5396 17.0031 17.5771 17.0701 17.5959C17.1398 17.6146 17.2685 17.6146 17.3436 17.5369C17.424 17.4511 17.3945 17.3118 17.3838 17.2689C17.3677 17.2099 17.3355 17.1643 17.3114 17.1241L17.2444 17.0196C17.18 16.9178 17.1184 16.8159 17.0514 16.7141C16.8664 16.4326 16.6841 16.1539 16.4965 15.8751C16.3008 15.5856 15.9978 15.4704 15.6011 15.532C15.4483 15.5562 12.0947 16.5961 12.0706 16.6015C12.2502 16.2718 13.3252 14.7869 13.6254 14.5993C13.8479 14.468 13.9417 14.342 14.3465 14.2723C15.1373 14.1383 16.853 13.7416 17.2792 13.4334C18.1076 12.833 18.1746 11.4687 18.1612 11.1953C18.1451 10.9219 18.2336 10.7343 18.4722 10.6083C18.5901 10.5467 19.8661 9.84175 20.4907 8.80179C20.866 8.19336 21.0591 7.54204 20.984 6.82104Z" fill="#D75546"/>
</svg>