<svg width="32" height="32" viewBox="0 0 32 32" fill="none" xmlns="http://www.w3.org/2000/svg">
<path d="M14.4333 29.3333C13.8333 29.3333 13.3166 29.1333 12.8833 28.7333C12.45 28.3333 12.1889 27.8444 12.1 27.2667L11.8 25.0667C11.5111 24.9556 11.2389 24.8222 10.9833 24.6667C10.7278 24.5111 10.4778 24.3444 10.2333 24.1667L8.16664 25.0333C7.61108 25.2778 7.05553 25.3 6.49997 25.1C5.94442 24.9 5.51108 24.5445 5.19997 24.0333L3.63331 21.3C3.3222 20.7889 3.23331 20.2444 3.36664 19.6667C3.49997 19.0889 3.79997 18.6111 4.26664 18.2333L6.03331 16.9C6.01109 16.7445 5.99997 16.5944 5.99997 16.45V15.55C5.99997 15.4056 6.01109 15.2556 6.03331 15.1L4.26664 13.7667C3.79997 13.3889 3.49997 12.9111 3.36664 12.3333C3.23331 11.7556 3.3222 11.2111 3.63331 10.7L5.19997 7.96667C5.51108 7.45556 5.94442 7.10001 6.49997 6.90001C7.05553 6.70001 7.61108 6.72223 8.16664 6.96667L10.2333 7.83334C10.4778 7.65556 10.7333 7.48889 11 7.33334C11.2666 7.17778 11.5333 7.04445 11.8 6.93334L12.1 4.73334C12.1889 4.15556 12.45 3.66667 12.8833 3.26667C13.3166 2.86667 13.8333 2.66667 14.4333 2.66667H17.5666C18.1666 2.66667 18.6833 2.86667 19.1166 3.26667C19.55 3.66667 19.8111 4.15556 19.9 4.73334L20.2 6.93334C20.4889 7.04445 20.7611 7.17778 21.0166 7.33334C21.2722 7.48889 21.5222 7.65556 21.7666 7.83334L23.8333 6.96667C24.3889 6.72223 24.9444 6.70001 25.5 6.90001C26.0555 7.10001 26.4889 7.45556 26.8 7.96667L28.3666 10.7C28.6777 11.2111 28.7666 11.7556 28.6333 12.3333C28.5 12.9111 28.2 13.3889 27.7333 13.7667L25.9666 15.1C25.9889 15.2556 26 15.4056 26 15.55V16.45C26 16.5944 25.9778 16.7445 25.9333 16.9L27.7 18.2333C28.1666 18.6111 28.4666 19.0889 28.6 19.6667C28.7333 20.2444 28.6444 20.7889 28.3333 21.3L26.7333 24.0333C26.4222 24.5445 25.9889 24.9 25.4333 25.1C24.8778 25.3 24.3222 25.2778 23.7666 25.0333L21.7666 24.1667C21.5222 24.3444 21.2666 24.5111 21 24.6667C20.7333 24.8222 20.4666 24.9556 20.2 25.0667L19.9 27.2667C19.8111 27.8444 19.55 28.3333 19.1166 28.7333C18.6833 29.1333 18.1666 29.3333 17.5666 29.3333H14.4333ZM16.0666 20.6667C17.3555 20.6667 18.4555 20.2111 19.3666 19.3C20.2778 18.3889 20.7333 17.2889 20.7333 16C20.7333 14.7111 20.2778 13.6111 19.3666 12.7C18.4555 11.7889 17.3555 11.3333 16.0666 11.3333C14.7555 11.3333 13.65 11.7889 12.75 12.7C11.85 13.6111 11.4 14.7111 11.4 16C11.4 17.2889 11.85 18.3889 12.75 19.3C13.65 20.2111 14.7555 20.6667 16.0666 20.6667Z" fill="#FFF8F8"/>
</svg>
